<svg version="1.1" id="Layer_1" xmlns="http://www.w3.org/2000/svg" xmlns:xlink="http://www.w3.org/1999/xlink" x="0px" y="0px"
	 width="100%" viewBox="0 0 400 400" enable-background="new 0 0 400 400" xml:space="preserve">
<path fill="#E97C0B" opacity="1.000000" stroke="none" 
	d="
M401.000000,284.000000 
	C401.000000,308.687561 401.000000,333.375122 400.668152,358.448853 
	C398.548401,357.380829 396.616943,356.070557 394.993988,354.451080 
	C367.190979,326.707672 339.437073,298.914948 311.624298,271.181335 
	C310.015442,269.577087 307.995636,268.384979 306.095886,266.537109 
	C306.016754,248.775574 306.017303,231.478012 305.996735,214.180481 
	C305.988586,207.328247 304.688293,206.028839 297.899475,206.000763 
	C283.266693,205.940247 268.633911,205.888672 253.968536,205.484802 
	C252.291031,202.146317 250.646088,199.156464 249.464996,196.095734 
	C265.877106,196.016953 281.826385,195.908829 297.772827,196.076309 
	C301.453583,196.114975 304.267700,195.317612 306.408356,192.087173 
	C308.275726,193.401932 309.947327,194.499268 311.337494,195.879990 
	C320.516876,204.996918 329.637329,214.173248 338.773987,223.333176 
	C353.655090,238.252151 368.457825,253.250504 383.453033,268.053864 
	C389.072662,273.601562 395.137909,278.697876 401.000000,284.000000 
z"/>
<path fill="#E97C0B" opacity="1.000000" stroke="none" 
	d="
M46.000000,1.000000 
	C70.687561,1.000000 95.375122,1.000000 120.619598,1.327402 
	C129.307190,10.126095 137.358582,18.675316 145.589081,27.048489 
	C155.346359,36.974903 165.226273,46.781593 175.111816,56.580898 
	C184.416260,65.804176 193.890671,74.857941 203.097351,84.176926 
	C206.670135,87.793297 209.713852,91.932373 212.591156,95.904465 
	C207.235321,95.499481 205.942383,98.195877 205.956512,102.614746 
	C206.010178,119.409126 205.889145,136.204056 205.513489,152.908051 
	C202.184570,150.544647 199.175629,148.271973 196.095810,145.535461 
	C196.016861,131.434372 196.018387,117.797096 195.996658,104.159866 
	C195.985779,97.329926 194.678772,96.026047 187.879974,96.001007 
	C171.252792,95.939774 154.625580,95.888367 137.917511,95.499969 
	C136.423248,93.147858 135.221420,90.930710 133.553833,89.149651 
	C129.705490,85.039421 125.649170,81.122520 121.640862,77.164009 
	C119.628044,75.176201 117.508453,73.296806 115.484306,71.320099 
	C107.886055,63.899910 100.229294,56.537323 92.742142,49.006325 
	C84.550621,40.766838 76.613602,32.273735 68.395042,24.061914 
	C61.591534,17.263977 54.515430,10.739435 47.631893,4.020214 
	C46.850117,3.257101 46.532726,2.018252 46.000000,1.000000 
z"/>
<path fill="#E4750D" opacity="1.000000" stroke="none" 
	d="
M45.531342,1.000000 
	C46.532726,2.018252 46.850117,3.257101 47.631893,4.020214 
	C54.515430,10.739435 61.591534,17.263977 68.395042,24.061914 
	C76.613602,32.273735 84.550621,40.766838 92.742142,49.006325 
	C100.229294,56.537323 107.886055,63.899910 115.484306,71.320099 
	C117.508453,73.296806 119.628044,75.176201 121.640862,77.164009 
	C125.649170,81.122520 129.705490,85.039421 133.553833,89.149651 
	C135.221420,90.930710 136.423248,93.147858 137.453613,95.570114 
	C125.613510,95.982567 114.156181,96.039566 102.699493,95.977455 
	C98.152931,95.952812 95.949440,97.969810 95.981163,102.570641 
	C96.016640,107.713707 95.889343,112.857895 95.510643,117.909424 
	C89.214767,112.344818 83.101479,107.015747 77.301071,101.365471 
	C69.123444,93.399467 61.211044,85.161972 53.122875,77.103157 
	C45.374565,69.382957 37.486797,61.802242 29.770134,54.050903 
	C21.714138,45.958714 13.837840,37.687309 5.755234,29.622284 
	C4.523923,28.393652 2.602324,27.856812 1.000000,27.000000 
	C1.000000,18.387093 1.000000,9.774186 1.000000,1.000000 
	C15.687226,1.000000 30.374954,1.000000 45.531342,1.000000 
z"/>
<path fill="#E4750D" opacity="1.000000" stroke="none" 
	d="
M306.167084,267.001068 
	C307.995636,268.384979 310.015442,269.577087 311.624298,271.181335 
	C339.437073,298.914948 367.190979,326.707672 394.993988,354.451080 
	C396.616943,356.070557 398.548401,357.380829 400.668152,358.917480 
	C401.000000,372.913147 401.000000,386.826324 401.000000,401.000000 
	C391.647369,401.000000 382.292358,401.000000 372.386169,400.668152 
	C370.500000,398.667633 369.309021,396.855255 367.808624,395.351562 
	C340.915070,368.399109 313.954407,341.513550 287.111969,314.510406 
	C284.708649,312.092682 283.019653,308.964905 281.462799,306.095581 
	C287.572021,306.016022 293.217743,306.046356 298.862549,305.988434 
	C304.375824,305.931854 305.941376,304.378815 305.989349,298.870117 
	C306.081848,288.247375 306.111420,277.624115 306.167084,267.001068 
z"/>
<path fill="#EE8308" opacity="1.000000" stroke="none" 
	d="
M212.998581,95.833336 
	C209.713852,91.932373 206.670135,87.793297 203.097351,84.176926 
	C193.890671,74.857941 184.416260,65.804176 175.111816,56.580898 
	C165.226273,46.781593 155.346359,36.974903 145.589081,27.048489 
	C137.358582,18.675316 129.307190,10.126095 121.088257,1.327402 
	C143.354233,1.000000 165.708450,1.000000 188.613785,1.331878 
	C190.619644,3.452320 191.930481,5.384480 193.550552,7.008072 
	C221.069077,34.586395 248.646255,62.106247 276.124359,89.724716 
	C277.785065,91.393890 278.724518,93.780663 279.535583,95.903770 
	C257.047241,95.927116 235.022919,95.880226 212.998581,95.833336 
z"/>
<path fill="#EE8308" opacity="1.000000" stroke="none" 
	d="
M401.000000,283.531342 
	C395.137909,278.697876 389.072662,273.601562 383.453033,268.053864 
	C368.457825,253.250504 353.655090,238.252151 338.773987,223.333176 
	C329.637329,214.173248 320.516876,204.996918 311.337494,195.879990 
	C309.947327,194.499268 308.275726,193.401932 306.362579,191.620468 
	C306.049561,169.378494 306.108215,147.689560 306.486633,126.091263 
	C308.460907,127.544647 310.241211,128.781387 311.751373,130.288788 
	C339.671936,158.158356 367.547974,186.072571 395.487396,213.923172 
	C397.088593,215.519241 399.151794,216.651764 401.000000,218.000000 
	C401.000000,239.687561 401.000000,261.375122 401.000000,283.531342 
z"/>
<path fill="#DF700F" opacity="1.000000" stroke="none" 
	d="
M1.000000,27.468658 
	C2.602324,27.856812 4.523923,28.393652 5.755234,29.622284 
	C13.837840,37.687309 21.714138,45.958714 29.770134,54.050903 
	C37.486797,61.802242 45.374565,69.382957 53.122875,77.103157 
	C61.211044,85.161972 69.123444,93.399467 77.301071,101.365471 
	C83.101479,107.015747 89.214767,112.344818 95.580910,118.373322 
	C95.926552,138.619873 95.879684,158.310379 95.512390,177.909637 
	C86.092010,169.157928 76.905296,160.586365 67.916039,151.812454 
	C58.542969,142.663956 49.354130,133.326538 40.096378,124.060097 
	C33.311501,117.268837 26.682806,110.314354 19.729456,103.700768 
	C13.671665,97.938965 7.256985,92.552376 0.999999,87.000000 
	C1.000000,67.312439 1.000000,47.624878 1.000000,27.468658 
z"/>
<path fill="#F68D05" opacity="1.000000" stroke="none" 
	d="
M244.000000,1.000000 
	C258.354218,1.000000 272.708466,1.000000 287.613831,1.331864 
	C294.304962,8.137786 300.343353,14.712037 306.607208,21.063906 
	C317.782684,32.396461 329.094421,43.594650 340.349091,54.849136 
	C351.250610,65.750511 362.202057,76.602600 373.036499,87.570282 
	C380.725861,95.354202 388.199860,103.351280 395.914185,111.109840 
	C397.238647,112.441917 399.286377,113.054855 401.000000,114.000000 
	C401.000000,129.020889 401.000000,144.041794 400.640350,159.501709 
	C396.534363,156.808212 392.556946,153.911057 389.083618,150.500488 
	C377.005402,138.640488 365.188751,126.513634 353.079346,114.686104 
	C349.435242,111.126823 345.161835,108.211845 341.108337,104.537270 
	C341.031525,92.268021 341.042145,80.463158 341.006897,68.658424 
	C340.988434,62.473793 339.542969,61.029022 333.405182,60.990559 
	C321.936371,60.918682 310.467316,60.877438 298.966309,60.476128 
	C297.873077,58.503166 297.027740,56.671989 295.711029,55.289822 
	C291.494476,50.863647 287.103485,46.603657 282.779572,42.279728 
	C271.200684,30.700727 259.568604,19.173912 248.099060,7.487601 
	C246.347595,5.703042 245.347565,3.180967 244.000000,1.000000 
z"/>
<path fill="#D25E16" opacity="1.000000" stroke="none" 
	d="
M0.999999,286.000000 
	C1.000000,269.645782 1.000000,253.291550 1.331851,236.551193 
	C3.333438,237.501022 5.144627,238.694916 6.651150,240.194809 
	C22.685886,256.159241 38.638397,272.206482 54.722580,288.120728 
	C56.396721,289.777161 58.773045,290.723938 60.891907,292.464233 
	C60.969086,306.562042 60.950195,320.195679 61.000252,333.829041 
	C61.020615,339.375000 62.596233,340.951172 68.083397,341.002106 
	C78.055450,341.094666 88.028107,341.121399 98.033020,341.522919 
	C99.366516,343.735779 100.427307,345.839691 102.005615,347.430023 
	C117.941772,363.487518 133.983856,379.439880 149.926743,395.490753 
	C151.519226,397.094025 152.653214,399.152710 154.000000,401.000000 
	C141.645767,401.000000 129.291550,401.000000 116.438599,400.639160 
	C115.089180,398.910431 114.461609,397.320404 113.354271,396.208008 
	C97.027122,379.806061 80.608482,363.495239 64.267632,347.106873 
	C44.986794,327.770020 25.786661,308.352509 6.455715,289.066040 
	C5.033333,287.646942 2.836687,287.003845 0.999999,286.000000 
z"/>
<path fill="#F28806" opacity="1.000000" stroke="none" 
	d="
M341.176697,105.001709 
	C345.161835,108.211845 349.435242,111.126823 353.079346,114.686104 
	C365.188751,126.513634 377.005402,138.640488 389.083618,150.500488 
	C392.556946,153.911057 396.534363,156.808212 400.640350,159.970367 
	C401.000000,179.020889 401.000000,198.041794 401.000000,217.531342 
	C399.151794,216.651764 397.088593,215.519241 395.487396,213.923172 
	C367.547974,186.072571 339.671936,158.158356 311.751373,130.288788 
	C310.241211,128.781387 308.460907,127.544647 306.415985,125.660645 
	C305.670868,122.726120 305.316101,120.312866 304.780670,117.627823 
	C302.681091,115.115570 300.762207,112.875114 298.985870,110.343163 
	C309.459595,99.697327 319.790741,89.342995 331.134766,77.973534 
	C331.134766,89.948936 331.134766,100.322014 331.134766,110.721832 
	C334.651184,110.721832 337.722839,110.721832 340.862396,110.721832 
	C340.977722,108.623039 341.077209,106.812378 341.176697,105.001709 
z"/>
<path fill="#DC6B11" opacity="1.000000" stroke="none" 
	d="
M0.999999,87.468658 
	C7.256985,92.552376 13.671665,97.938965 19.729456,103.700768 
	C26.682806,110.314354 33.311501,117.268837 40.096378,124.060097 
	C49.354130,133.326538 58.542969,142.663956 67.916039,151.812454 
	C76.905296,160.586365 86.092010,169.157928 95.582779,178.371552 
	C95.981888,180.411469 95.996666,181.898270 95.997452,183.385071 
	C96.003891,195.535583 96.003090,195.535583 108.091965,196.489792 
	C109.789276,199.819702 111.394386,202.826477 112.538223,205.903595 
	C108.599686,205.986557 105.115509,206.142334 101.646965,205.974640 
	C97.546204,205.776382 95.997093,207.779663 95.999039,211.618835 
	C96.001785,217.079468 95.893738,222.540176 95.485092,227.968536 
	C93.386063,226.752014 91.397049,225.807602 89.922714,224.344528 
	C80.706955,215.199142 71.629745,205.914413 62.461983,196.720367 
	C47.064411,181.278656 31.701504,165.801239 16.176105,150.488815 
	C11.363904,145.742615 6.072182,141.482605 1.000001,137.000000 
	C1.000000,120.645775 1.000000,104.291542 0.999999,87.468658 
z"/>
<path fill="#DF700F" opacity="1.000000" stroke="none" 
	d="
M280.998901,306.166870 
	C283.019653,308.964905 284.708649,312.092682 287.111969,314.510406 
	C313.954407,341.513550 340.915070,368.399109 367.808624,395.351562 
	C369.309021,396.855255 370.500000,398.667633 371.917480,400.668152 
	C355.312439,401.000000 338.624878,401.000000 321.386108,400.668152 
	C319.381561,398.549194 318.072021,396.618622 316.453430,394.996399 
	C289.311859,367.794800 262.106598,340.656647 235.010605,313.409851 
	C232.972885,311.360779 231.652985,308.597809 230.463318,306.095551 
	C247.617798,306.071869 264.308350,306.119354 280.998901,306.166870 
z"/>
<path fill="#D56215" opacity="1.000000" stroke="none" 
	d="
M60.823574,291.999969 
	C58.773045,290.723938 56.396721,289.777161 54.722580,288.120728 
	C38.638397,272.206482 22.685886,256.159241 6.651150,240.194809 
	C5.144627,238.694916 3.333438,237.501022 1.331851,236.082535 
	C1.000000,219.312439 1.000000,202.624878 1.331849,185.551178 
	C3.214161,186.381760 4.916177,187.448517 6.291588,188.838455 
	C19.815672,202.505569 33.195576,216.316360 46.794853,229.907806 
	C61.687149,244.791534 76.753983,259.500916 91.793640,274.236359 
	C92.941284,275.360779 94.477425,276.088715 95.903305,277.412842 
	C95.973625,279.789490 95.973625,281.754272 95.973625,284.373444 
	C99.534103,281.062225 102.259178,278.527924 105.320236,276.079498 
	C108.236000,277.824280 110.815781,279.483215 113.234695,281.447052 
	C99.329216,295.520935 85.584610,309.289917 71.839996,323.058899 
	C71.481972,322.836761 71.123955,322.614624 70.765930,322.392487 
	C70.765930,311.985016 70.765930,301.577576 70.765930,290.486359 
	C67.124260,291.040771 63.973915,291.520355 60.823574,291.999969 
z"/>
<path fill="#F28806" opacity="1.000000" stroke="none" 
	d="
M243.531342,1.000000 
	C245.347565,3.180967 246.347595,5.703042 248.099060,7.487601 
	C259.568604,19.173912 271.200684,30.700727 282.779572,42.279728 
	C287.103485,46.603657 291.494476,50.863647 295.711029,55.289822 
	C297.027740,56.671989 297.873077,58.503166 298.518494,60.543938 
	C295.843018,60.959076 293.583221,60.959076 291.304077,60.959076 
	C291.304077,64.616966 291.304077,67.667259 291.304077,71.176453 
	C301.950928,71.176453 312.285034,71.176453 322.302216,71.176453 
	C311.532288,82.296036 300.844238,93.331055 289.975342,104.051987 
	C287.652344,101.717766 285.510132,99.697647 283.514862,97.341766 
	C282.441040,96.615181 281.220306,96.224358 279.999573,95.833534 
	C278.724518,93.780663 277.785065,91.393890 276.124359,89.724716 
	C248.646255,62.106247 221.069077,34.586395 193.550552,7.008072 
	C191.930481,5.384480 190.619644,3.452320 189.082443,1.331878 
	C207.020889,1.000000 225.041794,1.000000 243.531342,1.000000 
z"/>
<path fill="#D96713" opacity="1.000000" stroke="none" 
	d="
M95.832993,277.000946 
	C94.477425,276.088715 92.941284,275.360779 91.793640,274.236359 
	C76.753983,259.500916 61.687149,244.791534 46.794853,229.907806 
	C33.195576,216.316360 19.815672,202.505569 6.291588,188.838455 
	C4.916177,187.448517 3.214161,186.381760 1.331849,185.082520 
	C1.000000,169.312439 1.000000,153.624878 1.000001,137.468658 
	C6.072182,141.482605 11.363904,145.742615 16.176105,150.488815 
	C31.701504,165.801239 47.064411,181.278656 62.461983,196.720367 
	C71.629745,205.914413 80.706955,215.199142 89.922714,224.344528 
	C91.397049,225.807602 93.386063,226.752014 95.555618,228.432465 
	C95.927048,244.952805 95.880020,260.976868 95.832993,277.000946 
z"/>
<path fill="#D66414" opacity="1.000000" stroke="none" 
	d="
M231.000000,401.000000 
	C216.645767,401.000000 202.291550,401.000000 187.439651,400.641541 
	C185.558716,398.286041 184.439850,396.025696 182.752609,394.331299 
	C156.386673,367.852600 129.953400,341.440948 103.509293,315.040253 
	C101.993378,313.526825 100.251083,312.240173 98.772186,310.542297 
	C107.499146,301.767609 116.068062,293.298584 124.947037,285.013123 
	C127.837433,288.742340 130.417770,292.287964 132.587738,295.903503 
	C124.575134,295.014893 122.669449,301.856873 118.671303,306.166840 
	C125.447243,306.166840 132.223175,306.166840 139.090057,306.486572 
	C140.427841,308.344696 141.547668,310.010559 142.942841,311.399963 
	C150.138306,318.565735 157.450882,325.614044 164.636978,332.789032 
	C185.726166,353.845703 206.791611,374.926208 227.800430,396.062927 
	C229.153305,397.423981 229.946472,399.341400 231.000000,401.000000 
z"/>
<path fill="#CE5918" opacity="1.000000" stroke="none" 
	d="
M0.999999,286.468658 
	C2.836687,287.003845 5.033333,287.646942 6.455715,289.066040 
	C25.786661,308.352509 44.986794,327.770020 64.267632,347.106873 
	C80.608482,363.495239 97.027122,379.806061 113.354271,396.208008 
	C114.461609,397.320404 115.089180,398.910431 115.969940,400.639160 
	C103.645775,401.000000 91.291542,401.000000 78.393936,400.653656 
	C74.236534,396.096405 70.862907,391.646362 66.959969,387.722870 
	C57.989880,378.705536 48.653473,370.052887 39.670250,361.048248 
	C31.155832,352.513489 23.054148,343.564331 14.467643,335.105286 
	C10.338799,331.037720 5.511174,327.679474 1.000000,324.000000 
	C1.000000,311.645782 1.000000,299.291534 0.999999,286.468658 
z"/>
<path fill="#D96812" opacity="1.000000" stroke="none" 
	d="
M231.468658,401.000000 
	C229.946472,399.341400 229.153305,397.423981 227.800430,396.062927 
	C206.791611,374.926208 185.726166,353.845703 164.636978,332.789032 
	C157.450882,325.614044 150.138306,318.565735 142.942841,311.399963 
	C141.547668,310.010559 140.427841,308.344696 139.553986,306.415161 
	C151.617935,306.071594 163.308884,306.119202 175.090714,306.486542 
	C176.427200,308.343567 177.551743,310.000946 178.938019,311.398743 
	C188.074051,320.610443 197.266388,329.766266 206.440399,338.940277 
	C224.557755,357.057678 242.716995,375.133575 260.737091,393.347168 
	C262.880280,395.513336 264.264160,398.430786 266.000000,401.000000 
	C254.645767,401.000000 243.291550,401.000000 231.468658,401.000000 
z"/>
<path fill="#F89003" opacity="1.000000" stroke="none" 
	d="
M401.000000,113.531342 
	C399.286377,113.054855 397.238647,112.441917 395.914185,111.109840 
	C388.199860,103.351280 380.725861,95.354202 373.036499,87.570282 
	C362.202057,76.602600 351.250610,65.750511 340.349091,54.849136 
	C329.094421,43.594650 317.782684,32.396461 306.607208,21.063906 
	C300.343353,14.712037 294.304962,8.137786 288.082520,1.331864 
	C298.354218,1.000000 308.708466,1.000000 319.613831,1.331850 
	C321.147430,2.979637 321.985535,4.439576 323.133575,5.590292 
	C346.972565,29.485121 370.821686,53.370083 394.767517,77.157593 
	C396.453522,78.832474 398.904633,79.737175 401.000000,81.000000 
	C401.000000,91.687561 401.000000,102.375122 401.000000,113.531342 
z"/>
<path fill="#CC5719" opacity="1.000000" stroke="none" 
	d="
M1.000000,324.468658 
	C5.511174,327.679474 10.338799,331.037720 14.467643,335.105286 
	C23.054148,343.564331 31.155832,352.513489 39.670250,361.048248 
	C48.653473,370.052887 57.989880,378.705536 66.959969,387.722870 
	C70.862907,391.646362 74.236534,396.096405 77.925278,400.653656 
	C52.406456,401.000000 26.812908,401.000000 1.000000,401.000000 
	C1.000000,375.646179 1.000000,350.291748 1.000000,324.468658 
z"/>
<path fill="#DD6C11" opacity="1.000000" stroke="none" 
	d="
M229.999405,306.166718 
	C231.652985,308.597809 232.972885,311.360779 235.010605,313.409851 
	C262.106598,340.656647 289.311859,367.794800 316.453430,394.996399 
	C318.072021,396.618622 319.381561,398.549194 320.917480,400.668152 
	C311.312439,401.000000 301.624878,401.000000 291.386139,400.668152 
	C289.852661,399.020416 289.015045,397.560089 287.866852,396.409760 
	C258.737610,367.227051 229.595337,338.057251 200.369431,308.971527 
	C198.679291,307.289490 196.263016,306.337097 194.376328,304.711731 
	C195.045334,302.349701 195.846573,300.335449 195.937286,298.289673 
	C196.177719,292.867065 196.111008,287.430817 196.486938,282.090820 
	C199.816132,284.121094 202.824860,286.060547 205.904099,288.461792 
	C205.983536,292.418579 206.149963,295.922028 205.963058,299.406494 
	C205.707214,304.176422 208.089157,306.003052 212.535019,306.009552 
	C218.356537,306.018036 224.177948,306.110443 229.999405,306.166718 
z"/>
<path fill="#D56215" opacity="1.000000" stroke="none" 
	d="
M98.614174,310.847961 
	C100.251083,312.240173 101.993378,313.526825 103.509293,315.040253 
	C129.953400,341.440948 156.386673,367.852600 182.752609,394.331299 
	C184.439850,396.025696 185.558716,398.286041 186.970993,400.641541 
	C176.312439,401.000000 165.624878,401.000000 154.468658,401.000000 
	C152.653214,399.152710 151.519226,397.094025 149.926743,395.490753 
	C133.983856,379.439880 117.941772,363.487518 102.005615,347.430023 
	C100.427307,345.839691 99.366516,343.735779 98.493759,341.453552 
	C102.860138,341.036865 106.798271,341.036865 110.669579,341.036865 
	C110.669579,337.337067 110.669579,334.279175 110.669579,330.731628 
	C99.977364,330.731628 89.622604,330.731628 79.871758,330.731628 
	C86.093834,324.130707 92.354012,317.489349 98.614174,310.847961 
z"/>
<path fill="#DC6B11" opacity="1.000000" stroke="none" 
	d="
M194.184662,305.045166 
	C196.263016,306.337097 198.679291,307.289490 200.369431,308.971527 
	C229.595337,338.057251 258.737610,367.227051 287.866852,396.409760 
	C289.015045,397.560089 289.852661,399.020416 290.917480,400.668152 
	C282.979095,401.000000 274.958191,401.000000 266.468628,401.000000 
	C264.264160,398.430786 262.880280,395.513336 260.737091,393.347168 
	C242.716995,375.133575 224.557755,357.057678 206.440399,338.940277 
	C197.266388,329.766266 188.074051,320.610443 178.938019,311.398743 
	C177.551743,310.000946 176.427200,308.343567 175.553741,306.415283 
	C182.012161,305.697876 188.098419,305.371521 194.184662,305.045166 
z"/>
<path fill="#FA9302" opacity="1.000000" stroke="none" 
	d="
M401.000000,80.531342 
	C398.904633,79.737175 396.453522,78.832474 394.767517,77.157593 
	C370.821686,53.370083 346.972565,29.485121 323.133575,5.590292 
	C321.985535,4.439576 321.147430,2.979637 320.082520,1.331850 
	C329.687561,1.000000 339.375122,1.000000 349.570587,1.348661 
	C355.933533,7.942198 361.703278,14.269906 367.665924,20.410311 
	C374.589813,27.540571 381.581329,34.612125 388.743286,41.501461 
	C392.613739,45.224602 396.900848,48.514595 401.000000,52.000000 
	C401.000000,61.354229 401.000000,70.708458 401.000000,80.531342 
z"/>
<path fill="#FD9601" opacity="1.000000" stroke="none" 
	d="
M401.000000,51.531342 
	C396.900848,48.514595 392.613739,45.224602 388.743286,41.501461 
	C381.581329,34.612125 374.589813,27.540571 367.665924,20.410311 
	C361.703278,14.269906 355.933533,7.942198 350.039246,1.348661 
	C366.926758,1.000000 383.853485,1.000000 401.000000,1.000000 
	C401.000000,17.686918 401.000000,34.374802 401.000000,51.531342 
z"/>
<path fill="#FFFFFF" opacity="1.000000" stroke="none" 
	d="
M230.463318,306.095551 
	C224.177948,306.110443 218.356537,306.018036 212.535019,306.009552 
	C208.089157,306.003052 205.707214,304.176422 205.963058,299.406494 
	C206.149963,295.922028 205.983536,292.418579 205.975189,287.997955 
	C205.928513,276.047394 205.881256,265.022491 205.905151,253.534027 
	C206.015121,238.451843 206.053940,223.833237 206.380035,208.976135 
	C208.992035,207.825378 211.300018,206.175964 213.644318,206.122604 
	C227.091797,205.816559 240.547928,205.889236 254.001114,205.833435 
	C268.633911,205.888672 283.266693,205.940247 297.899475,206.000763 
	C304.688293,206.028839 305.988586,207.328247 305.996735,214.180481 
	C306.017303,231.478012 306.016754,248.775574 306.095886,266.537109 
	C306.111420,277.624115 306.081848,288.247375 305.989349,298.870117 
	C305.941376,304.378815 304.375824,305.931854 298.862549,305.988434 
	C293.217743,306.046356 287.572021,306.016022 281.462799,306.095581 
	C264.308350,306.119354 247.617798,306.071869 230.463318,306.095551 
M238.071320,216.026108 
	C230.812881,216.026108 223.554428,216.026108 216.167313,216.026108 
	C216.167313,224.749039 216.167313,232.875458 216.026611,241.929520 
	C216.026611,259.851837 216.026611,277.774170 216.026611,295.832611 
	C234.745590,295.832611 252.871811,295.832611 271.925964,295.975189 
	C279.850952,295.975189 287.775940,295.975189 295.833038,295.975189 
	C295.833038,287.921295 295.833038,280.461151 295.975128,272.073090 
	C295.975128,253.484467 295.975128,234.895844 295.975128,216.166901 
	C276.584106,216.166901 257.791626,216.166901 238.071320,216.026108 
z"/>
<path fill="#FFFFFF" opacity="1.000000" stroke="none" 
	d="
M279.535583,95.903770 
	C281.220306,96.224358 282.441040,96.615181 283.243652,97.507446 
	C281.769318,99.038712 280.543182,99.944885 279.687714,101.120735 
	C276.696747,105.231880 272.802551,106.541298 267.774261,106.097061 
	C263.220612,105.694756 258.594635,106.111107 253.536514,106.096008 
	C244.715149,106.072609 236.357803,106.119682 227.542068,106.096519 
	C223.484436,106.026283 219.885208,106.026283 216.166626,106.026283 
	C216.166626,116.082260 216.166626,125.540825 216.096115,135.463440 
	C216.025604,152.516953 216.025604,169.106445 216.025604,185.833313 
	C233.413681,185.833313 250.206818,185.833313 267.463928,185.904083 
	C277.185394,185.974838 286.442963,185.974838 295.833466,185.974838 
	C295.833466,181.595703 295.833466,177.797684 295.904236,173.535797 
	C295.927673,162.047867 295.880341,151.023804 295.903564,139.541901 
	C294.561462,130.736984 297.052521,123.986633 304.113739,119.078239 
	C304.488342,118.817848 304.682953,118.298447 304.961334,117.899620 
	C305.316101,120.312866 305.670868,122.726120 306.096252,125.569992 
	C306.108215,147.689560 306.049561,169.378494 306.036652,191.534134 
	C304.267700,195.317612 301.453583,196.114975 297.772827,196.076309 
	C281.826385,195.908829 265.877106,196.016953 249.000854,196.025314 
	C236.604706,196.016983 225.136475,196.027267 213.668396,195.991745 
	C207.495300,195.972610 206.043976,194.520401 206.005951,188.389877 
	C205.932770,176.592941 205.889267,164.795822 205.833435,152.998779 
	C205.889145,136.204056 206.010178,119.409126 205.956512,102.614746 
	C205.942383,98.195877 207.235321,95.499481 212.591156,95.904465 
	C235.022919,95.880226 257.047241,95.927116 279.535583,95.903770 
z"/>
<path fill="#E6790C" opacity="1.000000" stroke="none" 
	d="
M205.513489,152.908051 
	C205.889267,164.795822 205.932770,176.592941 206.005951,188.389877 
	C206.043976,194.520401 207.495300,195.972610 213.668396,195.991745 
	C225.136475,196.027267 236.604706,196.016983 248.537018,196.096191 
	C250.646088,199.156464 252.291031,202.146317 253.968536,205.484802 
	C240.547928,205.889236 227.091797,205.816559 213.644318,206.122604 
	C211.300018,206.175964 208.992035,207.825378 206.289276,208.630585 
	C201.536896,204.317520 197.162537,200.111481 193.025894,195.617798 
	C194.175430,193.005066 195.827789,190.695740 195.877640,188.352310 
	C196.177902,174.238968 196.110825,160.117813 196.166687,145.999283 
	C199.175629,148.271973 202.184570,150.544647 205.513489,152.908051 
z"/>
<path fill="#FFFFFF" opacity="1.000000" stroke="none" 
	d="
M196.095825,145.535461 
	C196.110825,160.117813 196.177902,174.238968 195.877640,188.352310 
	C195.827789,190.695740 194.175430,193.005066 192.570618,195.618622 
	C177.585907,195.993408 163.294205,196.079742 148.538330,196.095795 
	C134.716049,196.072556 121.357918,196.119598 107.999779,196.166656 
	C96.003090,195.535583 96.003891,195.535583 95.997452,183.385071 
	C95.996666,181.898270 95.981888,180.411469 95.903214,178.462769 
	C95.879684,158.310379 95.926552,138.619873 95.903152,118.465485 
	C95.889343,112.857895 96.016640,107.713707 95.981163,102.570641 
	C95.949440,97.969810 98.152931,95.952812 102.699493,95.977455 
	C114.156181,96.039566 125.613510,95.982567 137.534485,95.903152 
	C154.625580,95.888367 171.252792,95.939774 187.879974,96.001007 
	C194.678772,96.026047 195.985779,97.329926 195.996658,104.159866 
	C196.018387,117.797096 196.016861,131.434372 196.095825,145.535461 
M185.975128,162.073074 
	C185.975128,143.484573 185.975128,124.896088 185.975128,106.166969 
	C166.917465,106.166969 148.458282,106.166969 129.071304,106.026154 
	C121.479340,106.026154 113.887367,106.026154 106.167351,106.026154 
	C106.167351,115.415787 106.167351,124.208557 106.026649,133.929108 
	C106.026649,151.184952 106.026649,168.440811 106.026649,185.832657 
	C124.079071,185.832657 141.538803,185.832657 159.926437,185.975266 
	C168.517227,185.975266 177.108032,185.975266 185.832977,185.975266 
	C185.832977,177.921570 185.832977,170.461288 185.975128,162.073074 
z"/>
<path fill="#FEFAF8" opacity="1.000000" stroke="none" 
	d="
M290.156219,104.366096 
	C300.844238,93.331055 311.532288,82.296036 322.302216,71.176453 
	C312.285034,71.176453 301.950928,71.176453 291.304077,71.176453 
	C291.304077,67.667259 291.304077,64.616966 291.304077,60.959076 
	C293.583221,60.959076 295.843018,60.959076 298.550598,60.891262 
	C310.467316,60.877438 321.936371,60.918682 333.405182,60.990559 
	C339.542969,61.029022 340.988434,62.473793 341.006897,68.658424 
	C341.042145,80.463158 341.031525,92.268021 341.108337,104.537277 
	C341.077209,106.812378 340.977722,108.623039 340.862396,110.721832 
	C337.722839,110.721832 334.651184,110.721832 331.134766,110.721832 
	C331.134766,100.322014 331.134766,89.948936 331.134766,77.973534 
	C319.790741,89.342995 309.459595,99.697327 298.681030,110.500183 
	C292.770020,116.509209 287.306458,122.069725 281.537903,127.787636 
	C277.638397,131.977463 274.043884,136.009888 270.455231,140.035736 
	C267.154602,136.935883 264.912292,134.829987 262.555267,132.616348 
	C265.295380,129.643326 267.731659,126.999931 270.472626,124.201035 
	C277.236938,117.485733 283.696594,110.925926 290.156219,104.366096 
z"/>
<path fill="#FEFAF8" opacity="1.000000" stroke="none" 
	d="
M98.772217,310.542328 
	C92.354012,317.489349 86.093834,324.130707 79.871758,330.731628 
	C89.622604,330.731628 99.977364,330.731628 110.669579,330.731628 
	C110.669579,334.279175 110.669579,337.337067 110.669579,341.036865 
	C106.798271,341.036865 102.860138,341.036865 98.461258,341.106232 
	C88.028107,341.121399 78.055450,341.094666 68.083397,341.002106 
	C62.596233,340.951172 61.020615,339.375000 61.000252,333.829041 
	C60.950195,320.195679 60.969086,306.562042 60.891907,292.464233 
	C63.973915,291.520355 67.124260,291.040771 70.765930,290.486359 
	C70.765930,301.577576 70.765930,311.985016 70.765930,322.392487 
	C71.123955,322.614624 71.481972,322.836761 71.839996,323.058899 
	C85.584610,309.289917 99.329216,295.520935 113.523888,281.306213 
	C119.933182,274.658142 125.892418,268.455811 131.630173,262.484039 
	C134.640976,265.296967 136.897293,267.404999 140.433792,270.709076 
	C135.017593,275.550476 129.827271,280.190002 124.636971,284.829529 
	C116.068062,293.298584 107.499146,301.767609 98.772217,310.542328 
z"/>
<path fill="#EE8308" opacity="1.000000" stroke="none" 
	d="
M281.842896,127.630234 
	C287.306458,122.069725 292.770020,116.509209 298.538452,110.791672 
	C300.762207,112.875114 302.681091,115.115570 304.780670,117.627823 
	C304.682953,118.298447 304.488342,118.817848 304.113739,119.078239 
	C297.052521,123.986633 294.561462,130.736984 295.555786,139.509705 
	C290.705963,135.833649 286.274414,131.731949 281.842896,127.630234 
z"/>
<path fill="#FFFFFF" opacity="1.000000" stroke="none" 
	d="
M194.376328,304.711731 
	C188.098419,305.371521 182.012161,305.697876 175.462891,306.095520 
	C163.308884,306.119202 151.617935,306.071594 139.463043,306.095398 
	C132.223175,306.166840 125.447243,306.166840 118.671303,306.166840 
	C122.669449,301.856873 124.575134,295.014893 133.051682,295.975159 
	C150.283722,295.929077 166.641434,295.881195 183.434052,295.901917 
	C184.578934,295.023773 185.898514,294.081726 185.905945,293.129425 
	C185.994629,281.754150 185.888367,270.377380 185.904312,258.537018 
	C185.975494,244.149673 185.975494,230.226288 185.975494,216.166977 
	C170.918274,216.166977 156.458481,216.166977 141.534821,216.096390 
	C130.534622,216.017288 119.998177,216.031296 109.462036,215.981506 
	C107.324432,215.971405 105.323174,215.869049 106.095680,219.465424 
	C106.016037,236.712265 106.039314,253.495407 105.953682,270.278015 
	C105.943947,272.184784 105.322227,274.088501 104.984268,275.993622 
	C102.259178,278.527924 99.534103,281.062225 95.973625,284.373444 
	C95.973625,281.754272 95.973625,279.789490 95.903305,277.412842 
	C95.880020,260.976868 95.927048,244.952805 95.903549,228.464798 
	C95.893738,222.540176 96.001785,217.079468 95.999039,211.618835 
	C95.997093,207.779663 97.546204,205.776382 101.646965,205.974640 
	C105.115509,206.142334 108.599686,205.986557 113.002090,205.974960 
	C127.618828,205.928650 141.310425,205.881317 155.465607,205.905136 
	C166.730728,205.984299 177.532318,205.972885 188.333755,206.007843 
	C194.504715,206.027802 195.955276,207.479614 195.994949,213.607178 
	C196.067032,224.737335 196.110474,235.867691 196.095627,247.462097 
	C196.072418,259.284149 196.119461,270.642059 196.166504,282.000000 
	C196.111008,287.430817 196.177719,292.867065 195.937286,298.289673 
	C195.846573,300.335449 195.045334,302.349701 194.376328,304.711731 
z"/>
<path fill="#DF700F" opacity="1.000000" stroke="none" 
	d="
M155.002029,205.833984 
	C141.310425,205.881317 127.618828,205.928650 113.463364,205.904617 
	C111.394386,202.826477 109.789276,199.819702 108.091965,196.489777 
	C121.357918,196.119598 134.716049,196.072556 148.628723,196.416199 
	C151.122849,199.815918 153.062439,202.824951 155.002029,205.833984 
z"/>
<path fill="#DB6A12" opacity="1.000000" stroke="none" 
	d="
M182.999146,295.833313 
	C166.641434,295.881195 150.283722,295.929077 133.462067,295.905273 
	C130.417770,292.287964 127.837433,288.742340 124.947029,285.013123 
	C129.827271,280.190002 135.017593,275.550476 140.433792,270.709076 
	C136.897293,267.404999 134.640976,265.296967 131.630173,262.484039 
	C125.892418,268.455811 119.933182,274.658142 113.684753,281.001282 
	C110.815781,279.483215 108.236000,277.824280 105.320251,276.079498 
	C105.322227,274.088501 105.943947,272.184784 105.953682,270.278015 
	C106.039314,253.495407 106.016037,236.712265 106.415466,219.555450 
	C113.146217,225.229340 119.503784,231.259079 125.822693,237.329056 
	C134.912643,246.060913 144.093689,254.702515 153.015793,263.603241 
	C162.525894,273.090576 171.798996,282.816284 181.113678,292.497437 
	C181.971375,293.388885 182.381302,294.711151 182.999146,295.833313 
z"/>
<path fill="#EE8308" opacity="1.000000" stroke="none" 
	d="
M289.975403,104.052002 
	C283.696594,110.925926 277.236938,117.485733 270.292236,123.892509 
	C268.131317,121.919518 266.434662,120.118164 264.783844,118.275780 
	C261.177063,114.250412 257.593567,110.204185 254.000534,106.166489 
	C258.594635,106.111107 263.220612,105.694756 267.774261,106.097061 
	C272.802551,106.541298 276.696747,105.231880 279.687714,101.120735 
	C280.543182,99.944885 281.769318,99.038712 283.096741,97.843208 
	C285.510132,99.697647 287.652344,101.717766 289.975403,104.052002 
z"/>
<path fill="#DF700F" opacity="1.000000" stroke="none" 
	d="
M196.486938,282.090820 
	C196.119461,270.642059 196.072418,259.284149 196.415314,247.552490 
	C199.814835,249.451706 202.824432,251.724655 205.834015,253.997604 
	C205.881256,265.022491 205.928513,276.047394 205.904694,287.536133 
	C202.824860,286.060547 199.816132,284.121094 196.486938,282.090820 
z"/>
<path fill="#E3750E" opacity="1.000000" stroke="none" 
	d="
M216.167313,241.001862 
	C216.167313,232.875458 216.167313,224.749039 216.167313,216.026108 
	C223.554428,216.026108 230.812881,216.026108 238.625885,216.416565 
	C243.070709,221.066193 246.852158,225.431290 250.873337,229.563049 
	C259.892303,238.830078 268.909424,248.105194 278.164886,257.133423 
	C283.826538,262.656067 289.928711,267.727142 295.833038,273.001007 
	C295.833038,280.461151 295.833038,287.921295 295.833038,295.975189 
	C287.775940,295.975189 279.850952,295.975189 271.371918,295.584259 
	C270.161499,294.248444 269.629944,293.179108 268.830322,292.377045 
	C252.531342,276.027832 236.213516,259.697357 219.849777,243.413040 
	C218.831192,242.399399 217.404266,241.796082 216.167313,241.001862 
z"/>
<path fill="#E6790C" opacity="1.000000" stroke="none" 
	d="
M295.904083,272.537048 
	C289.928711,267.727142 283.826538,262.656067 278.164886,257.133423 
	C268.909424,248.105194 259.892303,238.830078 250.873337,229.563049 
	C246.852158,225.431290 243.070709,221.066193 239.089783,216.486954 
	C257.791626,216.166901 276.584106,216.166901 295.975128,216.166901 
	C295.975128,234.895844 295.975128,253.484467 295.904083,272.537048 
z"/>
<path fill="#DF700F" opacity="1.000000" stroke="none" 
	d="
M216.096954,241.465698 
	C217.404266,241.796082 218.831192,242.399399 219.849777,243.413040 
	C236.213516,259.697357 252.531342,276.027832 268.830322,292.377045 
	C269.629944,293.179108 270.161499,294.248444 270.907959,295.512970 
	C252.871811,295.832611 234.745590,295.832611 216.026611,295.832611 
	C216.026611,277.774170 216.026611,259.851837 216.096954,241.465698 
z"/>
<path fill="#E3750E" opacity="1.000000" stroke="none" 
	d="
M205.905151,253.534027 
	C202.824432,251.724655 199.814835,249.451706 196.485565,247.088348 
	C196.110474,235.867691 196.067032,224.737335 195.994949,213.607178 
	C195.955276,207.479614 194.504715,206.027802 188.333755,206.007843 
	C177.532318,205.972885 166.730728,205.984299 155.465607,205.905136 
	C153.062439,202.824951 151.122849,199.815918 149.092865,196.486481 
	C163.294205,196.079742 177.585907,195.993408 192.332901,195.906250 
	C197.162537,200.111481 201.536896,204.317520 206.002014,208.869110 
	C206.053940,223.833237 206.015121,238.451843 205.905151,253.534027 
z"/>
<path fill="#EB7E0A" opacity="1.000000" stroke="none" 
	d="
M295.833466,173.999634 
	C295.833466,177.797684 295.833466,181.595703 295.833466,185.974838 
	C286.442963,185.974838 277.185394,185.974838 267.372498,185.578918 
	C265.256439,183.058502 263.926819,180.706528 262.096558,178.847427 
	C252.217545,168.812744 242.326370,158.784531 232.207031,148.994263 
	C227.114075,144.066925 221.529099,139.648148 216.166626,134.999390 
	C216.166626,125.540825 216.166626,116.082260 216.166626,106.026283 
	C219.885208,106.026283 223.484436,106.026283 227.632385,106.416168 
	C229.070663,107.986511 229.834457,109.292419 230.868378,110.328888 
	C251.150284,130.660538 271.452942,150.971573 291.798798,171.239151 
	C292.933929,172.369904 294.479156,173.088959 295.833466,173.999634 
z"/>
<path fill="#EE8308" opacity="1.000000" stroke="none" 
	d="
M295.904236,173.535782 
	C294.479156,173.088959 292.933929,172.369904 291.798798,171.239151 
	C271.452942,150.971573 251.150284,130.660538 230.868378,110.328888 
	C229.834457,109.292419 229.070663,107.986511 228.090775,106.486404 
	C236.357803,106.119682 244.715149,106.072609 253.536514,106.096008 
	C257.593567,110.204185 261.177063,114.250412 264.783844,118.275780 
	C266.434662,120.118164 268.131317,121.919518 269.987549,124.048004 
	C267.731659,126.999931 265.295380,129.643326 262.555267,132.616348 
	C264.912292,134.829987 267.154602,136.935883 270.455231,140.035736 
	C274.043884,136.009888 277.638397,131.977463 281.537903,127.787628 
	C286.274414,131.731949 290.705963,135.833649 295.485229,139.967560 
	C295.880341,151.023804 295.927673,162.047867 295.904236,173.535782 
z"/>
<path fill="#E97C0B" opacity="1.000000" stroke="none" 
	d="
M216.096115,135.463440 
	C221.529099,139.648148 227.114075,144.066925 232.207031,148.994263 
	C242.326370,158.784531 252.217545,168.812744 262.096558,178.847427 
	C263.926819,180.706528 265.256439,183.058502 266.908569,185.508148 
	C250.206818,185.833313 233.413681,185.833313 216.025604,185.833313 
	C216.025604,169.106445 216.025604,152.516953 216.096115,135.463440 
z"/>
<path fill="#E3750E" opacity="1.000000" stroke="none" 
	d="
M106.167351,133.001328 
	C106.167351,124.208557 106.167351,115.415787 106.167351,106.026154 
	C113.887367,106.026154 121.479340,106.026154 129.626648,106.418167 
	C132.677582,109.885956 134.941635,113.190956 137.714539,115.992249 
	C144.569611,122.917488 151.695862,129.573273 158.641312,136.410324 
	C165.357758,143.021942 171.960922,149.748505 178.663483,156.374374 
	C180.976501,158.660950 183.438843,160.796463 185.832977,163.000992 
	C185.832977,170.461288 185.832977,177.921570 185.832977,185.975266 
	C177.108032,185.975266 168.517227,185.975266 159.372238,185.584122 
	C155.559158,181.481232 152.465515,177.607224 149.010117,174.088455 
	C139.048340,163.943970 129.024185,153.857132 118.848503,143.928055 
	C114.862564,140.038712 110.408318,136.629318 106.167351,133.001328 
z"/>
<path fill="#E6790C" opacity="1.000000" stroke="none" 
	d="
M185.904053,162.537033 
	C183.438843,160.796463 180.976501,158.660950 178.663483,156.374374 
	C171.960922,149.748505 165.357758,143.021942 158.641312,136.410324 
	C151.695862,129.573273 144.569611,122.917488 137.714539,115.992249 
	C134.941635,113.190956 132.677582,109.885956 130.090546,106.488571 
	C148.458282,106.166969 166.917465,106.166969 185.975128,106.166969 
	C185.975128,124.896088 185.975128,143.484573 185.904053,162.537033 
z"/>
<path fill="#DF700F" opacity="1.000000" stroke="none" 
	d="
M106.097000,133.465210 
	C110.408318,136.629318 114.862564,140.038712 118.848503,143.928055 
	C129.024185,153.857132 139.048340,163.943970 149.010117,174.088455 
	C152.465515,177.607224 155.559158,181.481232 158.908295,185.512817 
	C141.538803,185.832657 124.079071,185.832657 106.026649,185.832657 
	C106.026649,168.440811 106.026649,151.184952 106.097000,133.465210 
z"/>
<path fill="#DD6C11" opacity="1.000000" stroke="none" 
	d="
M183.434052,295.901947 
	C182.381302,294.711151 181.971375,293.388885 181.113678,292.497437 
	C171.798996,282.816284 162.525894,273.090576 153.015793,263.603241 
	C144.093689,254.702515 134.912643,246.060913 125.822693,237.329056 
	C119.503784,231.259079 113.146217,225.229340 106.486145,219.091614 
	C105.323174,215.869049 107.324432,215.971405 109.462036,215.981506 
	C119.998177,216.031296 130.534622,216.017288 141.625443,216.416107 
	C143.304489,218.222153 144.306076,219.760162 145.572876,221.034531 
	C156.656265,232.184341 167.732559,243.342590 178.955658,254.350815 
	C180.898941,256.256897 183.523346,257.468567 185.833130,259.000977 
	C185.888367,270.377380 185.994629,281.754150 185.905945,293.129425 
	C185.898514,294.081726 184.578934,295.023773 183.434052,295.901947 
z"/>
<path fill="#DF700F" opacity="1.000000" stroke="none" 
	d="
M185.904312,258.537018 
	C183.523346,257.468567 180.898941,256.256897 178.955658,254.350815 
	C167.732559,243.342590 156.656265,232.184341 145.572876,221.034531 
	C144.306076,219.760162 143.304489,218.222153 142.089310,216.486694 
	C156.458481,216.166977 170.918274,216.166977 185.975494,216.166977 
	C185.975494,230.226288 185.975494,244.149673 185.904312,258.537018 
z"/>
</svg>