<svg version="1.1" id="Layer_1" xmlns="http://www.w3.org/2000/svg" xmlns:xlink="http://www.w3.org/1999/xlink" x="0px" y="0px"
	 width="100%" viewBox="0 0 396 347" enable-background="new 0 0 396 347" xml:space="preserve">
<path fill="#000000" opacity="1.000000" stroke="none" 
	d="
M397.000000,125.000000 
	C397.000000,199.666641 397.000000,273.833282 397.000000,347.999939 
	C265.000061,347.999939 133.000153,347.999939 1.000166,347.999969 
	C1.000111,232.333450 1.000111,116.666901 1.000055,1.000259 
	C132.999832,1.000173 264.999664,1.000173 396.999756,1.000086 
	C397.000000,42.166668 397.000000,83.333336 397.000000,125.000000 
M203.260147,17.838959 
	C196.699966,17.491800 189.863312,15.824048 183.648178,17.125137 
	C175.517166,18.827303 167.364014,21.970308 160.118286,26.077538 
	C133.700867,41.052185 107.397751,56.265022 81.546150,72.190941 
	C56.229446,87.787331 36.357876,108.678459 24.754404,136.533981 
	C16.240520,156.972565 13.504179,178.115616 18.044849,200.767059 
	C25.658878,235.752975 45.689278,262.079132 75.095169,282.704376 
	C101.371124,300.735504 130.478104,311.289062 161.992874,315.255402 
	C207.686417,321.006256 251.315811,314.397980 291.873444,291.954315 
	C322.926300,274.770416 347.046906,250.907257 359.415833,216.844803 
	C365.995728,198.724625 368.149200,180.056381 364.141632,160.135544 
	C363.575195,157.369492 363.159454,154.562424 362.419464,151.843613 
	C352.871155,116.762589 330.771576,91.175026 300.618774,72.333534 
	C275.994629,56.946728 250.740341,42.556335 225.569870,28.063791 
	C218.738205,24.130287 211.197983,21.427408 203.260147,17.838959 
z"/>
<path fill="#FBF0DF" opacity="1.000000" stroke="none" 
	d="
M74.766968,282.095306 
	C45.689278,262.079132 25.658878,235.752975 18.356009,200.051117 
	C18.777849,196.350830 18.611359,193.325211 19.048647,190.389542 
	C20.678295,179.449112 21.209394,168.129486 24.499380,157.691818 
	C34.943592,124.556946 56.172169,99.100891 84.902458,80.279541 
	C105.444008,66.822685 127.014275,54.931808 148.187775,42.447769 
	C152.280045,40.034943 156.660583,38.111038 160.818420,36.298187 
	C149.536148,58.989639 131.337280,73.187248 107.419975,80.727066 
	C107.736877,81.541618 108.053780,82.356178 108.370689,83.170731 
	C113.426582,82.781960 118.590645,82.922287 123.519997,81.914536 
	C147.217255,77.069855 161.932755,57.307476 165.033401,33.690521 
	C169.058151,31.229597 173.031570,29.113031 176.985382,27.421570 
	C176.562180,31.973528 176.344009,36.128494 175.723282,40.222424 
	C172.835388,59.269321 164.515503,75.539291 150.610611,88.939346 
	C149.468704,90.039803 148.756683,91.586327 146.989090,94.182678 
	C149.679565,93.554016 150.797775,93.479576 151.749054,93.042130 
	C163.987885,87.414116 173.430374,78.884003 178.380051,66.142105 
	C183.417282,53.174835 183.803757,40.001183 179.040314,26.482952 
	C181.083618,25.052216 182.930008,23.542015 185.035828,22.941380 
	C191.296799,21.155582 197.659821,19.727556 203.982956,18.159708 
	C211.197983,21.427408 218.738205,24.130287 225.569870,28.063791 
	C250.740341,42.556335 275.994629,56.946728 300.618774,72.333534 
	C330.771576,91.175026 352.871155,116.762589 362.419464,151.843613 
	C363.159454,154.562424 363.575195,157.369492 363.818207,160.821686 
	C363.007385,164.766495 362.454193,168.016861 362.042908,171.285095 
	C358.633148,198.380981 346.729919,221.598251 328.725342,241.628555 
	C303.532013,269.656342 271.486969,286.469360 235.615585,296.674316 
	C216.525650,302.105133 196.932632,304.300903 177.248962,304.763824 
	C165.744339,305.034393 154.152756,303.302429 142.659164,301.965179 
	C123.265793,299.708832 104.742508,294.130066 86.815399,286.452637 
	C82.896049,284.774170 78.788071,283.536163 74.766968,282.095306 
M275.146973,184.220428 
	C282.400909,173.543854 282.978699,162.367844 276.426727,152.571014 
	C269.900330,142.812424 260.483887,138.448425 248.983185,140.334045 
	C237.059860,142.288971 229.462296,149.761475 226.473053,161.503845 
	C223.408569,173.541763 229.121246,184.853104 241.688614,193.578049 
	C235.883850,200.518280 237.003632,207.473175 244.803055,212.921356 
	C255.966400,220.719376 277.064026,221.284912 288.333618,213.680710 
	C292.550232,210.835541 296.631317,207.422195 296.043030,201.259460 
	C295.495697,195.525223 292.449677,191.776688 287.279510,189.649353 
	C283.204346,187.972610 279.060364,186.462952 275.146973,184.220428 
M141.324097,192.319275 
	C151.996994,186.846008 157.413208,178.024872 156.912415,166.124527 
	C156.446335,155.048691 150.778641,146.791138 140.664429,142.327408 
	C130.157944,137.690582 120.145836,139.410507 111.324585,146.831345 
	C100.750862,155.726456 99.246834,169.547134 106.929123,184.650146 
	C104.079605,185.778137 101.246918,186.951050 98.377312,188.025391 
	C90.873734,190.834518 86.781120,196.023911 86.960358,202.474899 
	C87.133339,208.700531 91.489525,212.020706 96.146858,214.477356 
	C108.704895,221.101395 121.769897,220.644089 134.465363,215.086899 
	C145.360916,210.317566 147.365479,202.353561 141.324097,192.319275 
M216.057632,239.559357 
	C222.154572,233.665009 226.453064,226.654495 228.768082,218.507401 
	C230.446472,212.600739 227.816010,209.001892 221.632950,208.970078 
	C201.517761,208.866577 181.401474,208.864777 161.286209,208.957504 
	C155.123093,208.985916 151.875168,212.845001 154.253769,218.403290 
	C157.143875,225.156998 160.329514,232.329895 165.251770,237.570068 
	C182.807373,256.259491 197.856171,256.400787 216.057632,239.559357 
M204.359161,25.027372 
	C203.337509,25.192022 202.315857,25.356670 199.706833,25.777142 
	C221.362946,41.925571 233.419937,62.464474 237.033249,88.263657 
	C238.579788,87.013359 239.536530,85.924126 239.807175,84.685028 
	C242.069427,74.328140 240.990921,64.249054 236.780151,54.547318 
	C230.527817,40.141731 219.041626,31.321102 204.359161,25.027372 
M197.517242,89.905426 
	C196.978058,92.455406 196.438858,95.005394 195.728745,98.363747 
	C205.282608,93.814331 211.611694,72.367271 208.781876,57.934803 
	C206.230316,44.921349 194.505753,26.890528 187.365707,26.600971 
	C198.166763,46.473736 202.826614,67.062729 197.517242,89.905426 
z"/>
<path fill="#F3DBCC" opacity="1.000000" stroke="none" 
	d="
M74.931068,282.399841 
	C78.788071,283.536163 82.896049,284.774170 86.815399,286.452637 
	C104.742508,294.130066 123.265793,299.708832 142.659164,301.965179 
	C154.152756,303.302429 165.744339,305.034393 177.248962,304.763824 
	C196.932632,304.300903 216.525650,302.105133 235.615585,296.674316 
	C271.486969,286.469360 303.532013,269.656342 328.725342,241.628555 
	C346.729919,221.598251 358.633148,198.380981 362.042908,171.285095 
	C362.454193,168.016861 363.007385,164.766495 363.796631,161.232849 
	C368.149200,180.056381 365.995728,198.724625 359.415833,216.844803 
	C347.046906,250.907257 322.926300,274.770416 291.873444,291.954315 
	C251.315811,314.397980 207.686417,321.006256 161.992874,315.255402 
	C130.478104,311.289062 101.371124,300.735504 74.931068,282.399841 
z"/>
<path fill="#FBFAF8" opacity="1.000000" stroke="none" 
	d="
M160.908142,35.961594 
	C156.660583,38.111038 152.280045,40.034943 148.187775,42.447769 
	C127.014275,54.931808 105.444008,66.822685 84.902458,80.279541 
	C56.172169,99.100891 34.943592,124.556946 24.499380,157.691818 
	C21.209394,168.129486 20.678295,179.449112 19.048647,190.389542 
	C18.611359,193.325211 18.777849,196.350830 18.407467,199.655243 
	C13.504179,178.115616 16.240520,156.972565 24.754404,136.533981 
	C36.357876,108.678459 56.229446,87.787331 81.546150,72.190941 
	C107.397751,56.265022 133.700867,41.052185 160.118286,26.077538 
	C167.364014,21.970308 175.517166,18.827303 183.648178,17.125137 
	C189.863312,15.824048 196.699966,17.491800 203.621552,17.999332 
	C197.659821,19.727556 191.296799,21.155582 185.035828,22.941380 
	C182.930008,23.542015 181.083618,25.052216 178.715225,26.523369 
	C177.876190,26.932180 177.440582,26.964319 177.004974,26.996462 
	C173.031570,29.113031 169.058151,31.229597 164.685989,33.668163 
	C163.160873,34.647305 162.034500,35.304447 160.908142,35.961594 
z"/>
<path fill="#040403" opacity="1.000000" stroke="none" 
	d="
M107.123932,183.930359 
	C99.246834,169.547134 100.750862,155.726456 111.324585,146.831345 
	C120.145836,139.410507 130.157944,137.690582 140.664429,142.327408 
	C150.778641,146.791138 156.446335,155.048691 156.912415,166.124527 
	C157.413208,178.024872 151.996994,186.846008 140.737244,192.631805 
	C127.013069,197.738281 116.172623,194.116730 107.123932,183.930359 
M117.261681,149.121399 
	C111.746552,152.456421 109.748840,156.127930 110.951530,161.225479 
	C112.006821,165.698257 114.953331,168.389038 119.504578,168.991852 
	C123.795944,169.560242 128.001389,168.296295 129.453659,164.219406 
	C130.596344,161.011642 130.763000,156.644409 129.483200,153.576462 
	C127.581757,149.018402 122.938599,147.941940 117.261681,149.121399 
z"/>
<path fill="#040403" opacity="1.000000" stroke="none" 
	d="
M242.011185,192.954376 
	C229.121246,184.853104 223.408569,173.541763 226.473053,161.503845 
	C229.462296,149.761475 237.059860,142.288971 248.983185,140.334045 
	C260.483887,138.448425 269.900330,142.812424 276.426727,152.571014 
	C282.978699,162.367844 282.400909,173.543854 274.741150,184.694336 
	C265.382141,195.325821 254.391968,197.026657 242.011185,192.954376 
M234.459641,157.843613 
	C235.158676,167.100128 243.029480,172.067230 250.085724,167.704895 
	C253.941284,165.321274 256.009460,160.308273 254.675018,156.077209 
	C253.234055,151.508362 250.059357,148.884674 245.217636,148.597916 
	C240.052658,148.292007 236.467773,151.236206 234.459641,157.843613 
z"/>
<path fill="#060403" opacity="1.000000" stroke="none" 
	d="
M215.806519,239.808167 
	C197.856171,256.400787 182.807373,256.259491 165.251770,237.570068 
	C160.329514,232.329895 157.143875,225.156998 154.253769,218.403290 
	C151.875168,212.845001 155.123093,208.985916 161.286209,208.957504 
	C181.401474,208.864777 201.517761,208.866577 221.632950,208.970078 
	C227.816010,209.001892 230.446472,212.600739 228.768082,218.507401 
	C226.453064,226.654495 222.154572,233.665009 215.806519,239.808167 
M176.326126,224.734482 
	C190.773346,216.181046 203.949753,219.883270 217.196960,229.754730 
	C219.443039,224.796890 221.476852,220.307587 223.780960,215.221634 
	C201.794449,215.221634 181.069107,215.221634 158.738953,215.221634 
	C161.817719,221.222855 164.474686,226.401886 167.215912,231.745178 
	C170.741257,228.984375 173.218903,227.044052 176.326126,224.734482 
M175.972076,239.474533 
	C189.636917,248.906189 203.653458,246.818207 211.952774,234.114639 
	C199.708511,222.573364 182.531662,223.487259 172.625763,236.446609 
	C173.527206,237.292175 174.454041,238.161575 175.972076,239.474533 
z"/>
<path fill="#FDBBD0" opacity="1.000000" stroke="none" 
	d="
M107.026527,184.290253 
	C116.172623,194.116730 127.013069,197.738281 140.543243,192.910416 
	C147.365479,202.353561 145.360916,210.317566 134.465363,215.086899 
	C121.769897,220.644089 108.704895,221.101395 96.146858,214.477356 
	C91.489525,212.020706 87.133339,208.700531 86.960358,202.474899 
	C86.781120,196.023911 90.873734,190.834518 98.377312,188.025391 
	C101.246918,186.951050 104.079605,185.778137 107.026527,184.290253 
z"/>
<path fill="#FDBBD0" opacity="1.000000" stroke="none" 
	d="
M241.849899,193.266205 
	C254.391968,197.026657 265.382141,195.325821 274.641113,185.023666 
	C279.060364,186.462952 283.204346,187.972610 287.279510,189.649353 
	C292.449677,191.776688 295.495697,195.525223 296.043030,201.259460 
	C296.631317,207.422195 292.550232,210.835541 288.333618,213.680710 
	C277.064026,221.284912 255.966400,220.719376 244.803055,212.921356 
	C237.003632,207.473175 235.883850,200.518280 241.849899,193.266205 
z"/>
<path fill="#CDBFA9" opacity="1.000000" stroke="none" 
	d="
M160.818420,36.298187 
	C162.034500,35.304447 163.160873,34.647305 164.634644,34.012520 
	C161.932755,57.307476 147.217255,77.069855 123.519997,81.914536 
	C118.590645,82.922287 113.426582,82.781960 108.370689,83.170731 
	C108.053780,82.356178 107.736877,81.541618 107.419975,80.727066 
	C131.337280,73.187248 149.536148,58.989639 160.818420,36.298187 
z"/>
<path fill="#CEC0A9" opacity="1.000000" stroke="none" 
	d="
M204.729568,25.102966 
	C219.041626,31.321102 230.527817,40.141731 236.780151,54.547318 
	C240.990921,64.249054 242.069427,74.328140 239.807175,84.685028 
	C239.536530,85.924126 238.579788,87.013359 237.033249,88.263657 
	C233.419937,62.464474 221.362946,41.925571 199.706833,25.777142 
	C202.315857,25.356670 203.337509,25.192022 204.729568,25.102966 
z"/>
<path fill="#CDC0A9" opacity="1.000000" stroke="none" 
	d="
M176.985382,27.421568 
	C177.440582,26.964319 177.876190,26.932180 178.636902,26.859623 
	C183.803757,40.001183 183.417282,53.174835 178.380051,66.142105 
	C173.430374,78.884003 163.987885,87.414116 151.749054,93.042130 
	C150.797775,93.479576 149.679565,93.554016 146.989090,94.182678 
	C148.756683,91.586327 149.468704,90.039803 150.610611,88.939346 
	C164.515503,75.539291 172.835388,59.269321 175.723282,40.222424 
	C176.344009,36.128494 176.562180,31.973528 176.985382,27.421568 
z"/>
<path fill="#CDC0A9" opacity="1.000000" stroke="none" 
	d="
M197.653656,89.504707 
	C202.826614,67.062729 198.166763,46.473736 187.365707,26.600971 
	C194.505753,26.890528 206.230316,44.921349 208.781876,57.934803 
	C211.611694,72.367271 205.282608,93.814331 195.728745,98.363747 
	C196.438858,95.005394 196.978058,92.455406 197.653656,89.504707 
z"/>
<path fill="#FBFBFB" opacity="1.000000" stroke="none" 
	d="
M117.669647,149.037659 
	C122.938599,147.941940 127.581757,149.018402 129.483200,153.576462 
	C130.763000,156.644409 130.596344,161.011642 129.453659,164.219406 
	C128.001389,168.296295 123.795944,169.560242 119.504578,168.991852 
	C114.953331,168.389038 112.006821,165.698257 110.951530,161.225479 
	C109.748840,156.127930 111.746552,152.456421 117.669647,149.037659 
z"/>
<path fill="#F9F9F9" opacity="1.000000" stroke="none" 
	d="
M234.540588,157.471161 
	C236.467773,151.236206 240.052658,148.292007 245.217636,148.597916 
	C250.059357,148.884674 253.234055,151.508362 254.675018,156.077209 
	C256.009460,160.308273 253.941284,165.321274 250.085724,167.704895 
	C243.029480,172.067230 235.158676,167.100128 234.540588,157.471161 
z"/>
<path fill="#B31421" opacity="1.000000" stroke="none" 
	d="
M176.011322,224.919113 
	C173.218903,227.044052 170.741257,228.984375 167.215912,231.745178 
	C164.474686,226.401886 161.817719,221.222855 158.738953,215.221634 
	C181.069107,215.221634 201.794449,215.221634 223.780960,215.221634 
	C221.476852,220.307587 219.443039,224.796890 217.196960,229.754730 
	C203.949753,219.883270 190.773346,216.181046 176.011322,224.919113 
z"/>
<path fill="#F95F62" opacity="1.000000" stroke="none" 
	d="
M175.676483,239.252747 
	C174.454041,238.161575 173.527206,237.292175 172.625763,236.446609 
	C182.531662,223.487259 199.708511,222.573364 211.952774,234.114639 
	C203.653458,246.818207 189.636917,248.906189 175.676483,239.252747 
z"/>
</svg>