<svg version="1.1" id="Layer_1" xmlns="http://www.w3.org/2000/svg" xmlns:xlink="http://www.w3.org/1999/xlink" x="0px" y="0px"
	 width="100%" viewBox="0 0 225 225" enable-background="new 0 0 225 225" xml:space="preserve">
<path fill="#FFFEFE" opacity="1.000000" stroke="none" 
	d="
M226.000000,86.000000 
	C226.000000,133.000000 226.000000,179.500000 226.000000,226.000000 
	C151.000000,226.000000 76.000000,226.000000 1.000000,226.000000 
	C1.000000,151.000000 1.000000,76.000000 1.000000,1.000000 
	C76.000000,1.000000 151.000000,1.000000 226.000000,1.000000 
	C226.000000,29.166666 226.000000,57.333332 226.000000,86.000000 
M217.087311,136.043228 
	C217.433182,134.647919 217.932510,133.270996 218.102020,131.854568 
	C220.891266,108.546951 219.661697,85.804726 208.567551,64.450264 
	C198.266510,44.622444 182.980164,29.902082 163.303299,19.436983 
	C143.084671,8.683750 121.329300,6.232197 99.218323,8.788578 
	C67.851143,12.415126 42.721474,27.693333 24.797215,53.826633 
	C7.584274,78.922844 4.386263,106.795624 10.105433,136.767914 
	C10.559475,139.477051 10.686657,142.291000 11.516596,144.879623 
	C23.899473,183.502533 50.034714,207.883286 89.459854,216.327927 
	C133.298752,225.718002 170.400894,212.891251 198.872223,177.764511 
	C208.473541,165.918777 214.900024,152.250595 217.087311,136.043228 
z"/>
<path fill="#F58536" opacity="1.000000" stroke="none" 
	d="
M10.113407,136.125381 
	C4.386263,106.795624 7.584274,78.922844 24.797215,53.826633 
	C42.721474,27.693333 67.851143,12.415126 99.218323,8.788578 
	C121.329300,6.232197 143.084671,8.683750 163.303299,19.436983 
	C182.980164,29.902082 198.266510,44.622444 208.567551,64.450264 
	C219.661697,85.804726 220.891266,108.546951 218.102020,131.854568 
	C217.932510,133.270996 217.433182,134.647919 216.692932,136.550659 
	C215.547363,138.460358 214.590363,139.791336 214.076355,141.275711 
	C207.882370,159.163467 197.571472,174.450363 182.923035,186.186508 
	C156.509262,207.348862 126.190407,215.642548 92.817596,208.883133 
	C53.077839,200.834137 25.854303,177.560318 12.125476,139.050613 
	C11.741429,137.973358 10.796694,137.095963 10.113407,136.125381 
M108.342064,118.447525 
	C108.919273,118.632027 109.496483,118.816536 110.548653,119.474319 
	C112.543449,119.271614 114.538254,119.068901 117.482422,118.938629 
	C119.357643,118.968811 121.232864,118.998985 123.230110,119.729622 
	C128.982056,120.156754 134.728867,120.679909 140.487213,120.986992 
	C147.871719,121.380814 154.628662,122.407921 159.895111,128.828552 
	C164.140640,134.004532 169.671524,138.126205 174.765198,142.838730 
	C176.759216,141.262421 178.405563,139.960968 180.200729,138.541855 
	C173.889236,129.478531 167.896835,120.693314 161.656342,112.088013 
	C160.606934,110.640915 158.605179,109.639687 156.838043,108.999344 
	C148.263474,105.892342 139.618896,102.978485 130.645889,99.481773 
	C125.402153,95.858711 127.431328,102.212776 125.131294,102.685158 
	C119.505157,92.783958 110.362526,92.166847 101.635864,100.863556 
	C100.711929,100.592270 99.788002,100.320976 98.078621,99.993759 
	C88.126060,103.179466 78.158630,106.320358 68.241249,109.612053 
	C67.102379,109.990059 66.010101,111.045357 65.290344,112.064865 
	C59.150917,120.761261 53.102627,129.522003 46.824989,138.554199 
	C48.758316,140.033142 50.526562,141.385803 52.368683,142.794983 
	C59.030663,136.571365 65.349098,130.653351 71.690880,124.760468 
	C72.659286,123.860596 73.651909,122.504425 74.776871,122.339745 
	C79.392761,121.664024 84.070641,121.426430 88.713387,120.915588 
	C93.776192,120.358513 98.825371,119.677505 104.556145,118.763161 
	C105.731384,118.489967 106.906624,118.216774 108.020126,117.989090 
	C108.020126,117.989090 108.026550,117.912659 108.342064,118.447525 
M102.875992,66.836044 
	C103.910957,75.513855 104.945930,84.191673 105.922569,92.380432 
	C111.173531,92.380432 115.901367,92.380432 120.962234,92.380432 
	C121.263084,90.333183 121.626022,88.071602 121.923767,85.801468 
	C123.256165,75.642593 124.569984,65.481277 125.954628,54.350845 
	C125.918739,53.053303 125.882851,51.755760 125.944069,50.153221 
	C126.081764,49.960354 126.268494,49.875759 127.193581,49.675247 
	C127.430183,49.269226 127.666794,48.863205 127.957054,47.983326 
	C128.270767,47.646366 128.584473,47.309410 129.434265,46.647079 
	C129.583496,46.263393 129.732727,45.879707 129.911530,44.871887 
	C130.295609,43.909576 130.679703,42.947262 131.594803,41.565022 
	C131.554169,39.713696 131.513535,37.862366 131.184387,35.278309 
	C128.948776,25.339464 120.408104,19.040350 111.250015,20.580229 
	C103.697960,21.850060 98.213364,25.866966 96.179443,33.342468 
	C93.932350,41.601448 97.523697,47.876495 103.760490,53.306721 
	C102.857841,54.254047 101.955193,55.201374 101.277519,56.880615 
	C101.528488,58.916359 101.779457,60.952099 101.532433,63.339275 
	C101.887321,64.223602 102.242218,65.107933 102.875992,66.836044 
M69.801041,138.142166 
	C69.166313,139.570999 67.996277,140.993927 67.980469,142.429565 
	C67.837509,155.408875 67.896568,168.390411 67.896423,181.371292 
	C67.896400,183.116760 67.896416,184.862228 67.896416,186.549026 
	C98.702835,186.549026 128.739792,186.549026 158.804932,186.549026 
	C158.804932,170.330276 158.804932,154.436829 158.804932,138.125137 
	C129.255600,138.125137 100.002907,138.125137 69.801041,138.142166 
z"/>
<path fill="#9F5226" opacity="1.000000" stroke="none" 
	d="
M10.109420,136.446655 
	C10.796694,137.095963 11.741429,137.973358 12.125476,139.050613 
	C25.854303,177.560318 53.077839,200.834137 92.817596,208.883133 
	C126.190407,215.642548 156.509262,207.348862 182.923035,186.186508 
	C197.571472,174.450363 207.882370,159.163467 214.076355,141.275711 
	C214.590363,139.791336 215.547363,138.460358 216.655228,136.967224 
	C214.900024,152.250595 208.473541,165.918777 198.872223,177.764511 
	C170.400894,212.891251 133.298752,225.718002 89.459854,216.327927 
	C50.034714,207.883286 23.899473,183.502533 11.516596,144.879623 
	C10.686657,142.291000 10.559475,139.477051 10.109420,136.446655 
z"/>
<path fill="#FFFBF9" opacity="1.000000" stroke="none" 
	d="
M70.275635,138.133652 
	C100.002907,138.125137 129.255600,138.125137 158.804932,138.125137 
	C158.804932,154.436829 158.804932,170.330276 158.804932,186.549026 
	C128.739792,186.549026 98.702835,186.549026 67.896416,186.549026 
	C67.896416,184.862228 67.896400,183.116760 67.896423,181.371292 
	C67.896568,168.390411 67.837509,155.408875 67.980469,142.429565 
	C67.996277,140.993927 69.166313,139.570999 70.275635,138.133652 
M141.996689,157.503662 
	C141.996689,152.430679 141.996689,147.357681 141.996689,142.447266 
	C139.203430,142.447266 137.304916,142.447266 135.385376,142.447266 
	C135.385376,156.077850 135.385376,169.295700 135.385376,182.626938 
	C137.651642,182.626938 139.555573,182.626938 141.996689,182.626938 
	C141.996689,174.386810 141.996689,166.444412 141.996689,157.503662 
M113.498444,142.037079 
	C110.452614,141.624268 109.945168,143.295166 109.974045,145.899353 
	C110.077492,155.226517 110.014244,164.555557 110.014053,173.883881 
	C110.013992,176.805649 110.014038,179.727417 110.014038,182.556427 
	C112.756500,182.556427 114.663055,182.556427 116.977661,182.556427 
	C116.977661,169.718918 117.032478,157.253555 116.866173,144.791153 
	C116.853813,143.865250 115.254150,142.960526 113.498444,142.037079 
M91.968590,176.382507 
	C91.968590,165.116196 91.968590,153.849884 91.968590,142.483353 
	C89.331833,142.483353 87.316826,142.483353 85.397461,142.483353 
	C85.397461,156.155823 85.397461,169.377731 85.397461,182.581848 
	C87.701546,182.581848 89.607124,182.581848 91.968475,182.581848 
	C91.968475,180.602814 91.968475,178.972366 91.968590,176.382507 
M147.901245,159.501266 
	C147.901245,167.226624 147.901245,174.951996 147.901245,182.382584 
	C153.362335,183.875519 155.090683,182.270462 154.957321,177.441833 
	C154.682129,167.477036 154.893539,157.499298 154.867065,147.526962 
	C154.851883,141.812088 154.356445,141.463928 147.901016,142.783447 
	C147.901016,147.939789 147.901016,153.220856 147.901245,159.501266 
M72.125458,165.497314 
	C72.125473,169.486282 72.105171,173.475372 72.130356,177.464188 
	C72.166466,183.184540 72.629684,183.520859 78.649826,182.271225 
	C78.649826,168.962112 78.649826,155.640335 78.649826,142.460281 
	C73.628181,141.100067 71.794640,142.731659 72.054482,147.549011 
	C72.358406,153.183655 72.125664,158.847260 72.125458,165.497314 
M104.117561,176.388641 
	C104.117561,165.137924 104.117561,153.887207 104.117561,142.402496 
	C101.797523,142.402496 100.089874,142.402496 98.176590,142.402496 
	C98.176590,155.949997 98.176590,169.148849 98.176590,182.567047 
	C100.204910,182.567047 101.912971,182.567047 104.117859,182.567047 
	C104.117859,180.604919 104.117859,178.976715 104.117561,176.388641 
M129.124298,144.804092 
	C128.435822,140.335083 125.636803,142.265198 123.258652,142.566360 
	C123.258652,156.080231 123.258652,169.282806 123.258652,182.501556 
	C125.350395,182.501556 127.060806,182.501556 129.134811,182.501556 
	C129.134811,169.977005 129.134811,157.862503 129.124298,144.804092 
z"/>
<path fill="#FFFCFB" opacity="1.000000" stroke="none" 
	d="
M104.149178,52.698090 
	C97.523697,47.876495 93.932350,41.601448 96.179443,33.342468 
	C98.213364,25.866966 103.697960,21.850060 111.250015,20.580229 
	C120.408104,19.040350 128.948776,25.339464 131.260925,36.067154 
	C131.246231,38.565647 131.154999,40.275299 131.063782,41.984951 
	C130.679703,42.947262 130.295609,43.909576 129.636902,45.356819 
	C129.207596,46.218647 129.052887,46.595551 128.898193,46.972454 
	C128.584473,47.309410 128.270767,47.646366 127.635269,48.395634 
	C127.043739,49.171772 126.773994,49.535603 126.504257,49.899437 
	C126.268494,49.875759 126.081764,49.960354 125.571762,50.488441 
	C118.576828,55.874714 111.518867,56.036831 104.149178,52.698090 
M118.515396,33.952648 
	C115.411995,30.911797 111.710381,30.479280 109.026642,33.698570 
	C107.689697,35.302292 107.484329,39.100689 108.451706,41.085102 
	C109.958252,44.175552 113.389557,44.854424 116.578011,42.991310 
	C119.910301,41.044144 120.906204,38.183392 118.515396,33.952648 
z"/>
<path fill="#FFFCFB" opacity="1.000000" stroke="none" 
	d="
M103.880486,119.050522 
	C98.825371,119.677505 93.776192,120.358513 88.713387,120.915588 
	C84.070641,121.426430 79.392761,121.664024 74.776871,122.339745 
	C73.651909,122.504425 72.659286,123.860596 71.690880,124.760468 
	C65.349098,130.653351 59.030663,136.571365 52.368683,142.794983 
	C50.526562,141.385803 48.758316,140.033142 46.824989,138.554199 
	C53.102627,129.522003 59.150917,120.761261 65.290344,112.064865 
	C66.010101,111.045357 67.102379,109.990059 68.241249,109.612053 
	C78.158630,106.320358 88.126060,103.179466 98.479347,100.432236 
	C96.449661,108.057594 97.874062,114.184212 103.880486,119.050522 
z"/>
<path fill="#FFFCFB" opacity="1.000000" stroke="none" 
	d="
M130.999130,99.996201 
	C139.618896,102.978485 148.263474,105.892342 156.838043,108.999344 
	C158.605179,109.639687 160.606934,110.640915 161.656342,112.088013 
	C167.896835,120.693314 173.889236,129.478531 180.200729,138.541855 
	C178.405563,139.960968 176.759216,141.262421 174.765198,142.838730 
	C169.671524,138.126205 164.140640,134.004532 159.895111,128.828552 
	C154.628662,122.407921 147.871719,121.380814 140.487213,120.986992 
	C134.728867,120.679909 128.982056,120.156754 123.441345,119.186073 
	C128.720062,114.328598 130.438599,108.830246 128.612289,102.547005 
	C127.740692,99.548340 129.311935,99.998451 130.999130,99.996201 
z"/>
<path fill="#FFFDFB" opacity="1.000000" stroke="none" 
	d="
M102.030426,62.987843 
	C101.779457,60.952099 101.528488,58.916359 101.570137,56.460796 
	C109.961662,58.792461 117.976715,58.745979 125.890511,55.320843 
	C124.569984,65.481277 123.256165,75.642593 121.923767,85.801468 
	C121.626022,88.071602 121.263084,90.333183 120.962234,92.380432 
	C115.901367,92.380432 111.173531,92.380432 105.922569,92.380432 
	C104.945930,84.191673 103.910957,75.513855 102.779419,66.102417 
	C102.465370,64.575142 102.247902,63.781490 102.030426,62.987843 
z"/>
<path fill="#FFFCFA" opacity="1.000000" stroke="none" 
	d="
M116.533051,118.866196 
	C114.538254,119.068901 112.543449,119.271614 110.205414,118.933731 
	C109.250298,118.232971 108.638428,118.072815 108.026550,117.912659 
	C108.026550,117.912659 108.020126,117.989090 107.829613,117.709702 
	C101.138130,112.858612 99.683212,108.407791 102.315689,101.145149 
	C110.362526,92.166847 119.505157,92.783958 125.421707,103.349884 
	C127.062546,111.690826 122.896805,115.957756 116.533051,118.866196 
M109.156425,107.338188 
	C110.128929,110.317039 112.156929,111.958496 115.112999,110.546219 
	C116.386635,109.937752 117.589043,107.784363 117.582596,106.338356 
	C117.577530,105.201820 115.854881,103.467445 114.563591,103.066399 
	C111.752113,102.193230 109.846283,103.688721 109.156425,107.338188 
z"/>
<path fill="#F58533" opacity="1.000000" stroke="none" 
	d="
M125.922569,54.835846 
	C117.976715,58.745979 109.961662,58.792461 101.457649,56.094841 
	C101.955193,55.201374 102.857841,54.254047 103.954834,53.002403 
	C111.518867,56.036831 118.576828,55.874714 125.523209,50.640942 
	C125.882851,51.755760 125.918739,53.053303 125.922569,54.835846 
z"/>
<path fill="#F58635" opacity="1.000000" stroke="none" 
	d="
M117.007736,118.902412 
	C122.896805,115.957756 127.062546,111.690826 125.629662,103.606560 
	C127.431328,102.212776 125.402153,95.858711 130.822510,99.738983 
	C129.311935,99.998451 127.740692,99.548340 128.612289,102.547005 
	C130.438599,108.830246 128.720062,114.328598 123.380325,118.835846 
	C121.232864,118.998985 119.357643,118.968811 117.007736,118.902412 
z"/>
<path fill="#F58737" opacity="1.000000" stroke="none" 
	d="
M101.975777,101.004349 
	C99.683212,108.407791 101.138130,112.858612 107.860481,117.686943 
	C106.906624,118.216774 105.731384,118.489967 104.218315,118.906845 
	C97.874062,114.184212 96.449661,108.057594 98.872070,100.460190 
	C99.788002,100.320976 100.711929,100.592270 101.975777,101.004349 
z"/>
<path fill="#F58533" opacity="1.000000" stroke="none" 
	d="
M131.329285,41.774986 
	C131.154999,40.275299 131.246231,38.565647 131.405182,36.433517 
	C131.513535,37.862366 131.554169,39.713696 131.329285,41.774986 
z"/>
<path fill="#F58533" opacity="1.000000" stroke="none" 
	d="
M101.781433,63.163559 
	C102.247902,63.781490 102.465370,64.575142 102.639969,65.680527 
	C102.242218,65.107933 101.887321,64.223602 101.781433,63.163559 
z"/>
<path fill="#F58737" opacity="1.000000" stroke="none" 
	d="
M108.184311,118.180092 
	C108.638428,118.072815 109.250298,118.232971 109.967934,118.697083 
	C109.496483,118.816536 108.919273,118.632027 108.184311,118.180092 
z"/>
<path fill="#F58533" opacity="1.000000" stroke="none" 
	d="
M126.848923,49.787342 
	C126.773994,49.535603 127.043739,49.171772 127.608444,48.632561 
	C127.666794,48.863205 127.430183,49.269226 126.848923,49.787342 
z"/>
<path fill="#F58533" opacity="1.000000" stroke="none" 
	d="
M129.166229,46.809769 
	C129.052887,46.595551 129.207596,46.218647 129.622131,45.668884 
	C129.732727,45.879707 129.583496,46.263393 129.166229,46.809769 
z"/>
<path fill="#FBC094" opacity="1.000000" stroke="none" 
	d="
M141.996689,158.002838 
	C141.996689,166.444412 141.996689,174.386810 141.996689,182.626938 
	C139.555573,182.626938 137.651642,182.626938 135.385376,182.626938 
	C135.385376,169.295700 135.385376,156.077850 135.385376,142.447266 
	C137.304916,142.447266 139.203430,142.447266 141.996689,142.447266 
	C141.996689,147.357681 141.996689,152.430679 141.996689,158.002838 
z"/>
<path fill="#FBBF94" opacity="1.000000" stroke="none" 
	d="
M113.945419,142.041519 
	C115.254150,142.960526 116.853813,143.865250 116.866173,144.791153 
	C117.032478,157.253555 116.977661,169.718918 116.977661,182.556427 
	C114.663055,182.556427 112.756500,182.556427 110.014038,182.556427 
	C110.014038,179.727417 110.013992,176.805649 110.014053,173.883881 
	C110.014244,164.555557 110.077492,155.226517 109.974045,145.899353 
	C109.945168,143.295166 110.452614,141.624268 113.945419,142.041519 
z"/>
<path fill="#FBC094" opacity="1.000000" stroke="none" 
	d="
M91.968536,176.862213 
	C91.968475,178.972366 91.968475,180.602814 91.968475,182.581848 
	C89.607124,182.581848 87.701546,182.581848 85.397461,182.581848 
	C85.397461,169.377731 85.397461,156.155823 85.397461,142.483353 
	C87.316826,142.483353 89.331833,142.483353 91.968590,142.483353 
	C91.968590,153.849884 91.968590,165.116196 91.968536,176.862213 
z"/>
<path fill="#FBC299" opacity="1.000000" stroke="none" 
	d="
M147.901123,159.001602 
	C147.901016,153.220856 147.901016,147.939789 147.901016,142.783447 
	C154.356445,141.463928 154.851883,141.812088 154.867065,147.526962 
	C154.893539,157.499298 154.682129,167.477036 154.957321,177.441833 
	C155.090683,182.270462 153.362335,183.875519 147.901245,182.382584 
	C147.901245,174.951996 147.901245,167.226624 147.901123,159.001602 
z"/>
<path fill="#FBC299" opacity="1.000000" stroke="none" 
	d="
M72.125603,164.997803 
	C72.125664,158.847260 72.358406,153.183655 72.054482,147.549011 
	C71.794640,142.731659 73.628181,141.100067 78.649826,142.460281 
	C78.649826,155.640335 78.649826,168.962112 78.649826,182.271225 
	C72.629684,183.520859 72.166466,183.184540 72.130356,177.464188 
	C72.105171,173.475372 72.125473,169.486282 72.125603,164.997803 
z"/>
<path fill="#FBBF92" opacity="1.000000" stroke="none" 
	d="
M104.117706,176.868576 
	C104.117859,178.976715 104.117859,180.604919 104.117859,182.567047 
	C101.912971,182.567047 100.204910,182.567047 98.176590,182.567047 
	C98.176590,169.148849 98.176590,155.949997 98.176590,142.402496 
	C100.089874,142.402496 101.797523,142.402496 104.117561,142.402496 
	C104.117561,153.887207 104.117561,165.137924 104.117706,176.868576 
z"/>
<path fill="#FBBF92" opacity="1.000000" stroke="none" 
	d="
M129.129547,145.276047 
	C129.134811,157.862503 129.134811,169.977005 129.134811,182.501556 
	C127.060806,182.501556 125.350395,182.501556 123.258652,182.501556 
	C123.258652,169.282806 123.258652,156.080231 123.258652,142.566360 
	C125.636803,142.265198 128.435822,140.335083 129.129547,145.276047 
z"/>
<path fill="#F5883A" opacity="1.000000" stroke="none" 
	d="
M118.738503,34.281837 
	C120.906204,38.183392 119.910301,41.044144 116.578011,42.991310 
	C113.389557,44.854424 109.958252,44.175552 108.451706,41.085102 
	C107.484329,39.100689 107.689697,35.302292 109.026642,33.698570 
	C111.710381,30.479280 115.411995,30.911797 118.738503,34.281837 
z"/>
<path fill="#F58A3D" opacity="1.000000" stroke="none" 
	d="
M109.141830,106.952782 
	C109.846283,103.688721 111.752113,102.193230 114.563591,103.066399 
	C115.854881,103.467445 117.577530,105.201820 117.582596,106.338356 
	C117.589043,107.784363 116.386635,109.937752 115.112999,110.546219 
	C112.156929,111.958496 110.128929,110.317039 109.141830,106.952782 
z"/>
</svg>