<?xml version="1.0" standalone="no"?>
<!DOCTYPE svg PUBLIC "-//W3C//DTD SVG 20010904//EN"
 "http://www.w3.org/TR/2001/REC-SVG-20010904/DTD/svg10.dtd">
<svg version="1.0" xmlns="http://www.w3.org/2000/svg"
 width="536.000000pt" height="536.000000pt" viewBox="0 0 536.000000 536.000000"
 preserveAspectRatio="xMidYMid meet">
<metadata>
Created by potrace 1.14, written by Peter Selinger 2001-2017
</metadata>
<g transform="translate(0.000000,536.000000) scale(0.100000,-0.100000)"
fill="#000000" stroke="none">
<path d="M2505 5343 c-255 -27 -343 -42 -485 -79 -748 -197 -1370 -695 -1714
-1374 -190 -374 -285 -755 -291 -1170 -3 -188 4 -286 31 -475 21 -147 92 -398
159 -565 348 -868 1135 -1497 2055 -1644 154 -24 196 -28 380 -30 400 -7 710
54 1120 221 25 10 99 46 165 81 778 413 1299 1161 1411 2028 18 137 24 458 12
579 -44 426 -168 800 -384 1154 -344 563 -885 980 -1512 1166 -126 37 -327 80
-424 90 -29 3 -64 8 -78 12 -28 6 -398 11 -445 6z"/>
</g>
</svg>
